<svg width="32" height="32" viewBox="0 0 32 32" fill="none" xmlns="http://www.w3.org/2000/svg">
<path d="M13 20C7.60658 20 3 20.7975 3 23.985C3 27.175 7.57729 28 13 28C18.3934 28 23 27.2025 23 24.015C23 20.825 18.4227 20 13 20Z" fill="#1A1A1A"/>
<path d="M12.5 17C16.1083 17 19 14.1083 19 10.5C19 6.89165 16.1083 4 12.5 4C8.89296 4 6 6.89165 6 10.5C6 14.1083 8.89296 17 12.5 17Z" fill="#D4DAE4"/>
<path d="M21.7634 10.5542C21.7634 12.399 21.1876 14.1204 20.1779 15.5503C20.0729 15.6973 20.1657 15.8956 20.3485 15.9271C20.6023 15.9678 20.8629 15.9928 21.1289 15.998C23.776 16.065 26.1515 14.425 26.8078 11.9552C27.7806 8.29048 24.9262 5 21.29 5C20.8956 5 20.5177 5.03939 20.1493 5.11161C20.0988 5.12211 20.0442 5.14575 20.0169 5.18776C19.9815 5.2416 20.0074 5.31119 20.0429 5.35715C21.1358 6.83169 21.7634 8.62662 21.7634 10.5542Z" fill="#D4DAE4"/>
<path d="M28.7268 20.3868C28.2972 19.419 27.26 18.7554 25.6819 18.4294C24.9376 18.2376 22.9214 17.9653 21.0468 18.0036C21.0189 18.0075 21.0032 18.0279 21.0008 18.0407C20.9971 18.0612 21.0056 18.0919 21.0419 18.1136C21.9084 18.5662 25.2571 20.5351 24.8359 24.6878C24.8178 24.8693 24.9545 25.0228 25.1252 24.9972C25.9493 24.8732 28.0696 24.3912 28.7268 22.8927C29.0911 22.1001 29.0911 21.1795 28.7268 20.3868Z" fill="#1A1A1A"/>
</svg>
