<svg width="24" height="24" viewBox="0 0 24 24" fill="none" xmlns="http://www.w3.org/2000/svg">
<path d="M19.6641 16.8068C19.3874 17.4521 19.0454 18.0674 18.6436 18.6431C18.1068 19.4099 17.666 19.9397 17.3282 20.2346C16.8034 20.7164 16.2396 20.9643 15.6369 20.9783C15.2051 20.9783 14.6833 20.8554 14.0756 20.6055C13.4659 20.3565 12.9061 20.2346 12.3933 20.2346C11.8566 20.2346 11.2808 20.3565 10.6641 20.6055C10.0484 20.8554 9.55057 20.9863 9.16974 20.9983C8.59299 21.0233 8.01624 20.7694 7.44149 20.2346C7.07465 19.9147 6.61586 19.3649 6.0651 18.5872C5.47535 17.7585 4.99057 16.7938 4.61073 15.6972C4.20391 14.5106 4 13.363 4 12.2514C4 10.9788 4.27488 9.88023 4.82564 8.96055C5.2422 8.23827 5.83774 7.63545 6.55488 7.21017C7.26204 6.78599 8.06931 6.55759 8.89386 6.5484C9.35366 6.5484 9.95639 6.69035 10.7031 6.97025C11.4497 7.25015 11.9295 7.3921 12.1384 7.3921C12.2964 7.3921 12.8271 7.22516 13.7307 6.89428C14.5834 6.58739 15.3031 6.46043 15.8928 6.51041C17.4921 6.63937 18.6926 7.26915 19.4912 8.40475C18.0618 9.27144 17.3552 10.484 17.3692 12.0405C17.3811 13.253 17.822 14.2617 18.6856 15.0624C19.0674 15.4278 19.5129 15.7202 20 15.9251C19.894 16.232 19.7821 16.5249 19.6641 16.8068ZM15.9987 2.38087C15.9987 3.33053 15.6509 4.21822 14.9602 5.03893C14.1246 6.01459 13.115 6.57939 12.0205 6.49042C12.0062 6.371 11.9992 6.25082 11.9995 6.13055C11.9995 5.21787 12.3953 4.24221 13.102 3.44349C13.4539 3.03963 13.9017 2.70275 14.4444 2.43485C14.9862 2.17094 15.498 2.02499 15.9798 2C15.9928 2.12796 15.9987 2.25491 15.9987 2.38087Z" fill="#1A1A1A"/>
</svg>
