<svg width="32" height="32" viewBox="0 0 32 32" fill="none" xmlns="http://www.w3.org/2000/svg">
<path opacity="0.4" fill-rule="evenodd" clip-rule="evenodd" d="M28 13.67H4V29.67H28V13.67ZM18.7989 23.058C18.7694 22.8893 18.8289 22.7174 18.9584 22.5985L20.8282 20.9218C20.9821 20.7849 21.0386 20.5765 20.9731 20.3866C20.9036 20.1971 20.7282 20.0597 20.5182 20.0313L18.0335 19.6898C17.854 19.6638 17.6986 19.5562 17.6186 19.4014L16.5092 17.2841C16.4227 17.125 16.2573 17.0184 16.0693 16.9999H15.8588L15.7738 17.0331L15.7193 17.052C15.6893 17.0686 15.6623 17.089 15.6388 17.1136L15.5938 17.1468C15.5533 17.1837 15.5198 17.2273 15.4939 17.2747L14.399 19.4014C14.314 19.5624 14.148 19.6713 13.9591 19.6898L11.4744 20.0313C11.2679 20.0621 11.0969 20.199 11.0299 20.3866C10.9609 20.5746 11.0134 20.783 11.1644 20.9218L12.9697 22.5796C13.0992 22.7003 13.1587 22.8732 13.1292 23.0433L12.6842 25.3736C12.6357 25.6555 12.8332 25.9226 13.1292 25.9757C13.2506 25.9941 13.3746 25.9757 13.4841 25.9236L15.6988 24.8242C15.7408 24.8024 15.7868 24.7882 15.8338 24.7816H15.9693C16.0568 24.7839 16.1423 24.8048 16.2193 24.8436L18.4335 25.9378C18.6199 26.0325 18.8474 26.0183 19.0184 25.8999C19.1929 25.7857 19.2809 25.5858 19.2434 25.3883L18.7989 23.058Z" fill="#5BBB35"/>
<path d="M4 5.5V13H28V5.5H4Z" fill="#5BBB35"/>
<path d="M10 2H13V8H10V2Z" fill="#D4DAE4"/>
<rect x="19" y="2" width="3" height="6" fill="#D4DAE4"/>
</svg>
