<svg width="32" height="33" viewBox="0 0 32 33" fill="none" xmlns="http://www.w3.org/2000/svg">
<path d="M11 24.2185C11.5897 23.7382 12.1598 23.2722 12.7332 22.8061C13.1918 22.4326 13.6473 22.0555 14.1125 21.6891C14.1846 21.6322 14.2894 21.593 14.3779 21.593C15.862 21.5859 17.3462 21.593 18.8336 21.5859C19.9738 21.5788 20.9927 21.1839 21.8511 20.3692C22.9192 19.3589 23.4565 18.0711 23.4598 16.5307C23.4663 14.2894 23.4598 12.0482 23.4598 9.80695C23.4598 9.7358 23.4598 9.66465 23.4598 9.58638C23.5089 9.57926 23.545 9.56859 23.581 9.56859C24.4492 9.56859 25.3174 9.56148 26.1857 9.56859C27.5879 9.58282 28.7117 10.586 28.9476 12.0624C29.0098 12.4431 28.9934 12.8415 28.9967 13.2328C29 16.2212 28.9967 19.2095 29 22.1942C29 22.7065 28.9771 23.2117 28.7969 23.6955C28.3939 24.7948 27.4012 25.5597 26.3102 25.5739C25.4256 25.5881 24.541 25.581 23.6564 25.5739C23.5155 25.5739 23.4696 25.6095 23.4696 25.7696C23.4762 26.9684 23.4729 28.1638 23.4696 29.3626C23.4696 29.4196 23.4696 29.48 23.4696 29.5654C23.4106 29.5227 23.368 29.5014 23.332 29.4694C21.7823 28.2065 20.2326 26.9435 18.6796 25.6877C18.5977 25.6201 18.4732 25.581 18.3684 25.581C16.6713 25.5739 14.9742 25.5846 13.2738 25.5703C12.3105 25.5739 11.5734 25.0794 11 24.2185Z" fill="black"/>
<path d="M8.69065 23.5654C8.69065 23.1494 8.69065 22.7796 8.69065 22.4063C8.69065 21.5245 8.68728 20.6391 8.69403 19.7574C8.69403 19.6045 8.64341 19.5689 8.51181 19.5689C7.65807 19.5725 6.80096 19.576 5.94722 19.5725C4.62444 19.5654 3.55811 18.7831 3.15655 17.4995C3.05869 17.1902 3.00808 16.8489 3.00808 16.5217C2.99795 13.2043 2.99795 9.88338 3.0047 6.56598C3.00808 4.91973 4.28362 3.57215 5.85274 3.57215C9.03147 3.56859 12.2068 3.57215 15.3856 3.56859C16.6274 3.56859 17.8725 3.56148 19.1143 3.56859C20.5383 3.57926 21.6958 4.58194 21.9421 6.06108C22.0197 6.5162 21.9927 6.99266 21.9961 7.462C21.9995 10.4772 22.0029 13.4959 21.9961 16.5111C21.9927 18.2569 20.7307 19.5725 19.0705 19.576C17.3427 19.5796 15.6184 19.576 13.8907 19.5796C13.8029 19.5796 13.7017 19.6222 13.6342 19.6756C12.0482 20.9236 10.4656 22.1752 8.88299 23.4268C8.83238 23.4623 8.78176 23.4979 8.69065 23.5654Z" fill="#D4DAE4"/>
</svg>
