<svg width="32" height="33" viewBox="0 0 32 33" fill="none" xmlns="http://www.w3.org/2000/svg">
<path d="M26.6568 25.8364H19.0644C18.3237 25.8364 17.7212 26.4484 17.7212 27.2009C17.7212 27.9548 18.3237 28.5654 19.0644 28.5654H26.6568C27.3975 28.5654 28 27.9548 28 27.2009C28 26.4484 27.3975 25.8364 26.6568 25.8364Z" fill="#D4DAE4"/>
<path d="M13.7454 9.77063L20.9398 15.5841C21.1134 15.7231 21.143 15.9782 21.0076 16.156L12.4783 27.2698C11.9422 27.9563 11.152 28.3447 10.3054 28.3591L5.64928 28.4164C5.40095 28.4193 5.18366 28.2473 5.12723 28.0007C5.07079 27.7542 4.06901 23.3998 4.06901 23.3998C3.88558 22.5542 4.06901 21.6799 4.60517 21.0062L13.1767 9.83943C13.315 9.66026 13.5704 9.62873 13.7454 9.77063Z" fill="#1A1A1A"/>
<path d="M24.1607 12.1193L22.7737 13.8508C22.6341 14.0271 22.3829 14.0557 22.2094 13.9153C20.5233 12.5508 16.2057 9.04923 15.0078 8.07888C14.8329 7.93555 14.8089 7.68043 14.95 7.5027L16.2876 5.84151C17.501 4.27921 19.6174 4.13588 21.3247 5.49751L23.2859 7.05981C24.0902 7.69046 24.6263 8.52177 24.8098 9.39608C25.0214 10.3578 24.7956 11.3024 24.1607 12.1193Z" fill="#D4DAE4"/>
</svg>
