<svg width="20" height="19" viewBox="0 0 20 19" fill="none" xmlns="http://www.w3.org/2000/svg">
<path d="M9.08855 16.4384L9.08739 16.4374C6.4963 14.0878 4.41057 12.1946 2.96299 10.4248C1.5246 8.66618 0.8 7.12721 0.8 5.5C0.8 2.86183 2.86183 0.8 5.5 0.8C6.99777 0.8 8.44779 1.50115 9.39092 2.60867L10 3.32392L10.6091 2.60867C11.5522 1.50115 13.0022 0.8 14.5 0.8C17.1382 0.8 19.2 2.86183 19.2 5.5C19.2 7.12722 18.4754 8.66622 17.0368 10.4262C15.5892 12.1973 13.5037 14.0928 10.9128 16.4472C10.9125 16.4475 10.9122 16.4477 10.912 16.4479L10.002 17.27L9.08855 16.4384Z" stroke="#5BBB35" stroke-width="1.6"/>
</svg>
