<svg width="28" height="27" viewBox="0 0 28 27" fill="none" xmlns="http://www.w3.org/2000/svg">
<path d="M9.03986 0.899498C9.87986 0.925044 10.6932 1.07171 11.4812 1.33971H11.5599C11.6132 1.36504 11.6532 1.39304 11.6799 1.41838C11.9745 1.51304 12.2532 1.61971 12.5199 1.76638L13.0265 1.99304C13.2265 2.09971 13.4665 2.29838 13.5999 2.37971C13.7332 2.45838 13.8799 2.53971 13.9999 2.63171C15.4812 1.49971 17.2799 0.886378 19.1332 0.899498C19.9745 0.899498 20.8145 1.01838 21.6132 1.28638C26.5345 2.88638 28.3079 8.28638 26.8265 13.0064C25.9865 15.4184 24.6132 17.6197 22.8145 19.4184C20.2399 21.9117 17.4145 24.125 14.3732 26.0317L14.0399 26.233L13.6932 26.0184C10.6412 24.125 7.79986 21.9117 5.20119 19.405C3.41453 17.6064 2.03986 15.4184 1.18653 13.0064C-0.320141 8.28638 1.45319 2.88638 6.42786 1.25838C6.81453 1.12504 7.21319 1.03171 7.61319 0.979711H7.77319C8.14786 0.925044 8.51986 0.899498 8.89319 0.899498H9.03986ZM20.9199 5.11304C20.3732 4.92504 19.7732 5.21971 19.5732 5.77971C19.3865 6.33971 19.6799 6.95304 20.2399 7.15171C21.0945 7.47171 21.6665 8.31304 21.6665 9.24504V9.28638C21.6412 9.59171 21.7332 9.88638 21.9199 10.113C22.1065 10.3397 22.3865 10.4717 22.6799 10.4997C23.2265 10.485 23.6932 10.0464 23.7332 9.48504V9.32638C23.7732 7.45838 22.6412 5.76638 20.9199 5.11304Z" fill="#D4DAE4"/>
<path d="M18.0932 4.62847C18.4251 3.80544 19.4211 3.37237 20.3285 3.64867C23.1857 4.60888 25.0647 7.0956 24.9983 9.84099V10.0742C24.9319 10.8992 24.1573 11.5439 23.2499 11.5654C22.763 11.5243 22.2982 11.3303 21.9884 10.9971C21.6785 10.664 21.5258 10.2309 21.5679 9.7822V9.72145C21.5679 8.3517 20.6184 7.1152 19.1998 6.64489C18.2702 6.35291 17.7833 5.4515 18.0932 4.62847Z" fill="#1A1A1A"/>
</svg>
