<svg width="24" height="27" viewBox="0 0 24 27" fill="none" xmlns="http://www.w3.org/2000/svg">
<path d="M9.28415 23.2027C9.9507 23.0617 14.0123 23.0617 14.6788 23.2027C15.2486 23.3343 15.8648 23.6418 15.8648 24.3132C15.8317 24.9525 15.4567 25.5192 14.9386 25.879C14.2667 26.4028 13.4782 26.7345 12.654 26.854C12.1982 26.9131 11.7503 26.9144 11.3103 26.854C10.4847 26.7345 9.69627 26.4028 9.02575 25.8777C8.50629 25.5192 8.13127 24.9525 8.09814 24.3132C8.09814 23.6418 8.71434 23.3343 9.28415 23.2027Z" fill="#1A1A1A"/>
<path d="M12.0601 0.232117C14.8337 0.232117 17.6668 1.54814 19.3498 3.73167C20.4417 5.13767 20.9426 6.54232 20.9426 8.72585V9.29389C20.9426 10.9685 21.3852 11.9555 22.3592 13.0929C23.0973 13.9309 23.3332 15.0065 23.3332 16.1735C23.3332 17.3391 22.9502 18.4456 22.1829 19.344C21.1785 20.421 19.7619 21.1086 18.3162 21.2281C16.2211 21.4067 14.1247 21.5571 12.0005 21.5571C9.87496 21.5571 7.7799 21.4671 5.68484 21.2281C4.23778 21.1086 2.8212 20.421 1.81806 19.344C1.0508 18.4456 0.666504 17.3391 0.666504 16.1735C0.666504 15.0065 0.903705 13.9309 1.64049 13.0929C2.64495 11.9555 3.0584 10.9685 3.0584 9.29389V8.72585C3.0584 6.48324 3.61761 5.01681 4.76916 3.58127C6.48126 1.48771 9.22564 0.232117 11.9409 0.232117H12.0601Z" fill="#D4DAE4"/>
</svg>
