<svg width="26" height="27" viewBox="0 0 26 27" fill="none" xmlns="http://www.w3.org/2000/svg">
<path d="M13.956 0.232239C14.9643 0.232239 15.8773 0.792239 16.3814 1.61891C16.6267 2.01891 16.7902 2.51224 16.7493 3.03224C16.7221 3.43224 16.8447 3.83224 17.0627 4.20557C17.7577 5.33891 19.2974 5.76557 20.4965 5.12557C21.8455 4.35224 23.5487 4.81891 24.3254 6.13891L25.2384 7.71224C26.0287 9.03224 25.5927 10.7256 24.2301 11.4856C23.0718 12.1656 22.6631 13.6722 23.358 14.8189C23.576 15.1789 23.8213 15.4856 24.2028 15.6722C24.6797 15.9256 25.0476 16.3256 25.3065 16.7256C25.8107 17.5522 25.7698 18.5656 25.2793 19.4589L24.3254 21.0589C23.8213 21.9122 22.8811 22.4456 21.9136 22.4456C21.4367 22.4456 20.9053 22.3122 20.4692 22.0456C20.115 21.8189 19.7062 21.7389 19.2702 21.7389C17.9212 21.7389 16.7902 22.8456 16.7493 24.1656C16.7493 25.6989 15.4957 26.8989 13.9287 26.8989H12.0756C10.4949 26.8989 9.24135 25.6989 9.24135 24.1656C9.21409 22.8456 8.08313 21.7389 6.73414 21.7389C6.28448 21.7389 5.8757 21.8189 5.53505 22.0456C5.09901 22.3122 4.55397 22.4456 4.09068 22.4456C3.1096 22.4456 2.1694 21.9122 1.66523 21.0589L0.725034 19.4589C0.220869 18.5922 0.193616 17.5522 0.697782 16.7256C0.9158 16.3256 1.32458 15.9256 1.78787 15.6722C2.1694 15.4856 2.41467 15.1789 2.64631 14.8189C3.32762 13.6722 2.91884 12.1656 1.76062 11.4856C0.411634 10.7256 -0.0244012 9.03224 0.752286 7.71224L1.66523 6.13891C2.45555 4.81891 4.14518 4.35224 5.50779 5.12557C6.69326 5.76557 8.23301 5.33891 8.92795 4.20557C9.14596 3.83224 9.2686 3.43224 9.24135 3.03224C9.21409 2.51224 9.36398 2.01891 9.62288 1.61891C10.127 0.792239 11.04 0.258905 12.0347 0.232239H13.956ZM13.0158 9.80557C10.8765 9.80557 9.14596 11.4856 9.14596 13.5789C9.14596 15.6722 10.8765 17.3389 13.0158 17.3389C15.1551 17.3389 16.8447 15.6722 16.8447 13.5789C16.8447 11.4856 15.1551 9.80557 13.0158 9.80557Z" fill="#D4DAE4"/>
</svg>
