<svg width="170" height="35" viewBox="0 0 170 35" fill="none" xmlns="http://www.w3.org/2000/svg">
<g clip-path="url(#clip0_1_1957)">
<path d="M79.4296 0C74.0322 2.0068 68.6347 4.01285 63.2373 6.0189C63.2373 6.36303 63.2373 6.70641 63.2373 7.05054C68.6347 9.05659 74.0322 11.0634 79.4296 13.0694C84.827 11.0626 90.2244 9.05659 95.6218 7.05054C95.6218 6.70641 95.6218 6.36303 95.6218 6.0189C90.2237 4.01285 84.827 2.0068 79.4296 0ZM95.1314 6.9175C89.8974 8.86335 84.6635 10.8092 79.4296 12.755C74.1956 10.8085 68.9617 8.8626 63.7278 6.91601C63.7278 6.87662 63.7278 6.83797 63.7278 6.79858C68.9617 4.85273 74.1956 2.90688 79.4296 0.961032C84.6635 2.90762 89.8974 4.85347 95.1314 6.80006C95.1314 6.83946 95.1314 6.87811 95.1314 6.9175Z" fill="#5AB031"/>
<path d="M63.2334 27.9494C63.2334 28.2936 63.2334 28.637 63.2334 28.9811C68.6308 30.9871 74.0283 32.9939 79.4257 35C84.8231 32.9939 90.2205 30.9871 95.618 28.9811C95.618 28.637 95.618 28.2936 95.618 27.9494C90.2205 25.9434 84.8231 23.9366 79.4257 21.9305C74.0283 23.9366 68.6308 25.9426 63.2334 27.9494ZM95.1275 28.2014C89.8936 30.1473 84.6596 32.0931 79.4257 34.039C74.1917 32.0924 68.9578 30.1465 63.7239 28.1999C63.7239 28.1605 63.7239 28.1219 63.7239 28.0825C68.9578 26.1366 74.1917 24.1908 79.4257 22.2449C84.6596 24.1915 89.8936 26.1374 95.1275 28.084C95.1275 28.1226 95.1275 28.162 95.1275 28.2014Z" fill="#5AB031"/>
<path d="M25.1655 18.1036C26.6053 20.2695 28.0451 22.4353 29.4848 24.6012C29.0471 24.6012 28.6086 24.6012 28.1709 24.6012C26.9586 22.7453 25.7464 20.8894 24.5342 19.0335C24.7444 18.7228 24.9553 18.4128 25.1655 18.1036Z" fill="#5AB031"/>
<path d="M168.613 10.3663C167.097 12.6786 165.58 14.9909 164.063 17.3039C162.498 14.9916 160.933 12.6794 159.367 10.3663C158.905 10.3663 158.443 10.3663 157.98 10.3663C159.83 13.0465 161.679 15.7275 163.529 18.4076C163.529 20.4724 163.529 22.5364 163.529 24.6012C163.901 24.6012 164.275 24.6012 164.648 24.6012C164.648 22.5364 164.648 20.4724 164.648 18.4076C166.432 15.7275 168.217 13.0465 170.001 10.3663C169.538 10.3663 169.076 10.3663 168.613 10.3663Z" fill="white"/>
<path d="M138.421 11.302C140.067 11.302 141.714 11.302 143.36 11.302C143.36 15.7348 143.36 20.1676 143.36 24.6003C143.685 24.6003 144.009 24.6003 144.333 24.6003C144.333 20.1676 144.333 15.7348 144.333 11.302C145.996 11.302 147.659 11.302 149.321 11.302C149.321 10.9898 149.321 10.6776 149.321 10.3655C145.687 10.3655 142.054 10.3655 138.42 10.3655C138.421 10.6784 138.421 10.9898 138.421 11.302Z" fill="white"/>
<path d="M127.79 27.5481C128.17 27.5481 128.479 23.0418 128.479 17.4829C128.479 11.9241 128.17 7.41772 127.79 7.41772C127.41 7.41772 127.102 11.9241 127.102 17.4829C127.102 23.0418 127.41 27.5481 127.79 27.5481Z" fill="white"/>
<path d="M109.425 10.3663C109.1 10.3663 108.776 10.3663 108.451 10.3663C108.451 15.1113 108.451 19.8562 108.451 24.6012C111.363 24.6012 114.274 24.6012 117.186 24.6012C117.186 24.2972 117.186 23.9932 117.186 23.6892C114.599 23.6892 112.012 23.6892 109.425 23.6892C109.425 19.2475 109.425 14.8066 109.425 10.3663Z" fill="white"/>
<path d="M95.873 10.3663C95.873 15.1113 95.873 19.8562 95.873 24.6012C96.1978 24.6012 96.5217 24.6012 96.8465 24.6012C96.8465 19.8562 96.8465 15.1113 96.8465 10.3663C96.5225 10.3663 96.1978 10.3663 95.873 10.3663Z" fill="white"/>
<path d="M82.5175 17.1352C83.0856 17.0393 83.5482 16.6714 83.9045 16.0314C84.2775 15.3915 84.4643 14.6311 84.4643 13.7511C84.4643 12.8228 84.1562 12.0223 83.5399 11.3504C82.9078 10.6941 82.1536 10.3663 81.2774 10.3663C81.2774 10.3663 77.9195 10.3663 74.5615 10.3663C74.5615 15.1113 74.5615 19.8562 74.5615 24.6012C77.9195 24.6012 81.2774 24.6012 81.2774 24.6012C82.3314 24.6012 83.2483 24.2169 84.0025 23.4246C84.7491 22.6405 85.122 21.6966 85.122 20.5921C85.122 19.7277 84.8787 18.9681 84.392 18.3118C83.8887 17.6555 83.2641 17.263 82.5175 17.1352ZM75.5349 11.3021C78.309 11.3021 81.083 11.3021 81.083 11.3021C81.7483 11.3021 82.3156 11.5422 82.7857 12.0223C83.2566 12.5025 83.4917 13.0785 83.4917 13.7504C83.4917 14.5828 83.2558 15.2941 82.7857 15.8865C82.3156 16.4789 81.7475 16.7747 81.083 16.7747C81.083 16.7747 78.309 16.7747 75.5349 16.7747C75.5349 14.9507 75.5349 13.1268 75.5349 11.3021ZM83.2476 22.7765C82.6478 23.3845 81.9261 23.6885 81.0823 23.6885C81.0823 23.6885 78.3082 23.6885 75.5342 23.6885C75.5342 21.6802 75.5342 19.6719 75.5342 17.6636C78.3082 17.6636 81.0823 17.6636 81.0823 17.6636C81.9261 17.6636 82.6388 17.9602 83.2476 18.528C83.848 19.0877 84.1479 19.776 84.1479 20.5921C84.1486 21.4401 83.848 22.1685 83.2476 22.7765Z" fill="white"/>
<path d="M62.4708 27.5481C62.8512 27.5481 63.1595 23.0418 63.1595 17.4829C63.1595 11.9241 62.8512 7.41772 62.4708 7.41772C62.0905 7.41772 61.7822 11.9241 61.7822 17.4829C61.7822 23.0418 62.0905 27.5481 62.4708 27.5481Z" fill="white"/>
<path d="M49.4236 16.5828C46.52 16.5828 43.6163 16.5828 40.7127 16.5828C40.7127 14.5106 40.7127 12.4377 40.7127 10.3655C40.3879 10.3655 40.064 10.3655 39.7393 10.3655C39.7393 15.1104 39.7393 19.8554 39.7393 24.6003C40.064 24.6003 40.3879 24.6003 40.7127 24.6003C40.7127 22.2323 40.7127 19.8636 40.7127 17.4955C43.6163 17.4955 46.52 17.4955 49.4236 17.4955C49.4236 19.8636 49.4236 22.2323 49.4236 24.6003C49.7483 24.6003 50.0723 24.6003 50.397 24.6003C50.397 19.8554 50.397 15.1104 50.397 10.3655C50.0723 10.3655 49.7483 10.3655 49.4236 10.3655C49.4236 12.4384 49.4236 14.5106 49.4236 16.5828Z" fill="white"/>
<path d="M23.9378 16.3912C22.6396 14.3829 21.3423 12.3746 20.0441 10.3663C19.6147 10.3663 19.1845 10.3663 18.7543 10.3663C20.2302 12.6466 21.7069 14.9277 23.1828 17.208C21.5849 19.6727 19.9869 22.1366 18.3896 24.6012C18.8198 24.6012 19.2493 24.6012 19.6795 24.6012C21.0989 22.4406 22.5183 20.2806 23.9378 18.12C24.1487 17.816 24.3597 17.512 24.5699 17.208C26.1189 14.9277 27.6679 12.6466 29.2169 10.3663C28.7792 10.3663 28.3407 10.3663 27.9029 10.3663C26.5822 12.3746 25.26 14.3829 23.9378 16.3912Z" fill="white"/>
<path d="M0 24.6003C3.1387 24.6003 6.2774 24.6003 9.4161 24.6003C9.4161 24.2963 9.4161 23.9924 9.4161 23.6884C6.60212 23.6884 3.78739 23.6884 0.973404 23.6884C0.973404 21.6801 0.973404 19.6718 0.973404 17.6635C3.54403 17.6635 6.11542 17.6635 8.6868 17.6635C8.6868 17.3677 8.6868 17.0719 8.6868 16.7753C6.11542 16.7753 3.54479 16.7753 0.973404 16.7753C0.973404 14.9506 0.973404 13.1267 0.973404 11.302C3.78739 11.302 6.60212 11.302 9.4161 11.302C9.4161 10.9898 9.4161 10.6776 9.4161 10.3655C6.2774 10.3655 3.1387 10.3655 0 10.3655C0 15.1112 0 19.8554 0 24.6003Z" fill="white"/>
</g>
<defs>
<clipPath id="clip0_1_1957">
<rect width="170" height="35" fill="white"/>
</clipPath>
</defs>
</svg>
